<svg xmlns="http://www.w3.org/2000/svg" xmlns:xlink="http://www.w3.org/1999/xlink" width="100" height="100"><defs><linearGradient id="c" x1="17.025%" x2="82.975%" y1="-8.597%" y2="108.603%"><stop offset="0%" stop-color="#9EB5D7"/><stop offset="1%" stop-color="#A0B6D8"/><stop offset="30%" stop-color="#C3CEE3"/><stop offset="56%" stop-color="#DCE0EB"/><stop offset="80%" stop-color="#EBEAF0"/><stop offset="100%" stop-color="#F0EEF2"/></linearGradient><circle id="a" cx="50" cy="50" r="50"/></defs><g fill="none" fill-rule="evenodd"><mask id="b" fill="#fff"><use xlink:href="#a"/></mask><use fill="#D8D8D8" xlink:href="#a"/><g fill-rule="nonzero" mask="url(#b)"><path fill="url(#c)" d="M.361.404H100v102.235H.361z" transform="translate(-8.434 -1.205)"/><path fill="#FCBB7F" d="M40.831 12.536S23.73 20.434 27.94 41.572a8.32 8.32 0 01-.65 5.2c-1.435 3.011-4.82 7.83-6.32 11.379-2.476 5.945 7.229 2.114 7.38 4.921.15 2.808-2.808 5.627-1.404 6.681 1.403 1.054 4.042-.699 4.921 0 .88.699-5.451 2.813-2.813 4.572 2.639 1.76 3.163.53 4.042 2.814.88 2.283-.174 10.897 10.374 8.614 10.548-2.283 12.482-2.813 18.283 8.614 0 0 25.494 5.802 27.428-1.584 1.933-7.385-14.067-13.361-11.603-29.71 0 0 15.56-34.103-1.488-47.29-18.482-14.289-35.259-3.247-35.259-3.247z"/><path fill="#F59080" d="M48.367 67.247c-2.204.928-.126 4.602 1.368 4.602 1.494 0 3.976-6.837-1.368-4.602zm-8.614-8.518c-2.163 2.259.32 3.012 2.578 2.638 2.26-.373.952-6.343-2.578-2.638z"/><path fill="#5C429A" d="M51.199 2.705c-7.994.602-26.097 11.91-25.904 27.289a8.434 8.434 0 003.145 6.464c6.536 5.259 4.301 13.855 46.433 18.156 0 0 2.073 2.711-1.632 10.5-3.705 7.79-8.223 10.476-5.193 17.711 3.03 7.235-5.048 12.952 2.018 13.711 7.067.76 23.362 3.446 26.054-5.132 2.693-8.579 20.32-93.627-44.921-88.7z"/><path fill="#FCBB7F" d="M42.331 57.65s.603 2.025-.391 2.597c-.994.572-2.73.699-2.554.801a5.114 5.114 0 003.186.247c1.398-.452.952-3.397-.24-3.644z" style="mix-blend-mode:multiply"/><path fill="#F59080" d="M53.608 57.06l-.078.103a1.566 1.566 0 00.663 2.204 1.753 1.753 0 002.199-.873c.94-2.06-1.62-2.94-2.784-1.434z"/><path fill="#FCBB7F" d="M56.048 56.59s.548 2.253-2.283 2.494c.307.304.733.454 1.163.41a1.693 1.693 0 001.445-1c.163-.47.525-1.205-.325-1.904z" style="mix-blend-mode:multiply"/><path fill="#F59080" d="M39.964 70.301h-.066a.807.807 0 00-.446 1.097.898.898 0 001.156.361c1.049-.5.314-1.675-.644-1.458z"/><path fill="#FCBB7F" d="M41.096 70.91s-.512 1.126-1.716.27a.779.779 0 00.33.56.848.848 0 00.898.075c.217-.144.603-.327.488-.905zm7.38.24a2.608 2.608 0 002.657-1.933c.722-2.133.427-.127.427-.127s-.289 1.808-1.512 2.669c0 0-.434.53-1.572-.608z" style="mix-blend-mode:multiply"/></g></g></svg>