<svg xmlns="http://www.w3.org/2000/svg" xmlns:xlink="http://www.w3.org/1999/xlink" width="100" height="100"><defs><linearGradient id="c" x1="17.028%" x2="82.978%" y1="-8.601%" y2="108.601%"><stop offset="0%" stop-color="#9EB5D7"/><stop offset="49%" stop-color="#C8D2E5"/><stop offset="100%" stop-color="#F0EEF2"/></linearGradient><circle id="a" cx="50" cy="50" r="50"/></defs><g fill="none" fill-rule="evenodd"><mask id="b" fill="#fff"><use xlink:href="#a"/></mask><use fill="#D8D8D8" xlink:href="#a"/><g fill-rule="nonzero" mask="url(#b)"><path fill="url(#c)" d="M.367.139h104.446V107.3H.367z" transform="translate(-2.41 -3.012)"/><path fill="#FCBB7F" d="M43.313 20.06s0 6.741 3.211 9.15c0 0 1.741 12.049 11.777 6.959 0 0 4.952 9.638-2.27 12.71-7.224 3.073-12.05 8-7.362 14.037 0 0-19.549 9.41-7.127 26.777 0 0 3.868 6.434 1.205 17.367h27.482s3.259-34.265 2.446-39.964c-.814-5.698 2.295-23.21.132-24.433-2.162-1.223-8.277-10.994-10.921-14.253-2.645-3.26-12.494-11.609-18.573-8.35z"/><path fill="#FCBB7F" d="M46.524 29.21s1.741 12.049 11.777 6.959c0 0 2.079 4.048 1.579 7.735 3.138-1.808 6.475-4.217 10.144-4.217-2.705-3.494-6.265-8.982-8.12-11.271-2.651-3.253-12.537-11.609-18.59-8.35 0-.006 0 6.735 3.21 9.145z"/><path fill="#F59080" d="M72.825 42.663a5.036 5.036 0 01-1.03-.874c-.12.02-.242.02-.361 0-2.036-.494-4.097.217-5.916 1.12-1.82.904-3.614 2.127-5.482 3.145a.91.91 0 01-.831.048 6.12 6.12 0 01-3.175 2.802c-6.958 2.956-11.675 7.626-7.83 13.355a.765.765 0 01-.26 1.084c-3.475 1.97-17.3 11.09-6.373 26.374 0 0 3.868 6.434 1.205 17.367h27.482S73.513 72.819 72.7 67.12c-.813-5.698 2.289-23.234.126-24.457z"/><path fill="#FCBB7F" d="M68.283 45.18c-2.825 3.398-1.084 10.928-.602 14.681a103.157 103.157 0 003.85 18.157s-8.435 11.524-18.525 12.988c-1.177.158-2.339.42-3.47.783-1.205.422-4.012 0-9.934-5.94 0 0-2.204-3.24-2.674 1.398-.458 4.512 3.482 9.934 6.626 9.452 3.145-.482 27.223-.326 33.916-14.952 3.53-7.71 3.012-17.133 1.524-25.301a46.343 46.343 0 00-2.904-10.15c-.41-.935-.867-2.17-1.614-2.898-1.205-1.205-2.476-.458-4.018.24a8.97 8.97 0 00-1.133.603 4.488 4.488 0 00-1.042.94z"/><path fill="#5C429A" d="M43.313 21.163s2.024 2.41 7.952 2.65c5.928.241 9.115 3.615 9.747 6.952a.169.169 0 010 .108c-.163.356-1.036 2.32 0 1.934.861-.313 1.627-.476 1.97-1.283a.18.18 0 01.343.042c.512 2.807 2.476 9.838 9.488 11.097 0 0 4.874 3.12 7.295 22.584 0 0-.47 4.65 1.808 1.687 2.277-2.964 8.433-13.386 3.524-21.844-4.91-8.457.705-12.819-9.585-20.572-10.289-7.753-4.506-11.416-17.192-11.554 0 0-1.549-4.217-8.175-1.807-6.627 2.41-7.723 5.753-7.175 10.006z" style="mix-blend-mode:multiply"/><path fill="#5C429A" d="M45.175 22.458s-2.88 2.325-.603 7.476c2.277 5.15-1.205 1.921-1.988-.603-.783-2.524-3.21-5.223 1.036-12.5" style="mix-blend-mode:multiply"/><path fill="#FCBB7F" d="M58.301 36.145s1.205-.145 3.434-2.296c0 0 .187-1.162.687-.463.5.698-2.506 6.518-4.12 2.759z" opacity=".54" style="mix-blend-mode:multiply"/></g></g></svg>