<svg xmlns="http://www.w3.org/2000/svg" xmlns:xlink="http://www.w3.org/1999/xlink" width="100" height="100"><defs><path id="a" d="M.032 50.015C.032 22.473 22.397.145 49.986.145c27.59 0 49.956 22.328 49.956 49.87 0 27.543-22.366 49.87-49.956 49.87-27.589 0-49.954-22.327-49.954-49.87z"/><path id="d" d="M.032 50.015C.032 22.473 22.397.145 49.986.145c27.59 0 49.956 22.328 49.956 49.87 0 27.543-22.366 49.87-49.956 49.87"/><path id="f" d="M64.39 2.137v62.07H2.208A49.798 49.798 0 01.131 49.932C.13 22.39 22.496.062 50.086.062c4.971 0 9.773.725 14.305 2.075"/><path id="h" d="M.032 50.015C.032 22.473 22.397.145 49.986.145c27.59 0 49.956 22.328 49.956 49.87 0 27.543-22.366 49.87-49.956 49.87"/><path id="j" d="M.134.078h3.913v4.138H.134z"/><path id="l" d="M.032 50.015C.032 22.473 22.397.145 49.986.145c27.59 0 49.956 22.328 49.956 49.87 0 27.543-22.366 49.87-49.956 49.87"/><path id="n" d="M.071.026h1.463v1.467H.071z"/><path id="p" d="M.032 50.015C.032 22.473 22.397.145 49.986.145c27.59 0 49.956 22.328 49.956 49.87 0 27.543-22.366 49.87-49.956 49.87"/><linearGradient id="b" x1="17.074%" x2="82.92%" y1="-8.602%" y2="108.597%"><stop offset="0%" stop-color="#9EB5D7"/><stop offset="41%" stop-color="#C6D1E4"/><stop offset="79%" stop-color="#E4E6EE"/><stop offset="100%" stop-color="#F0EEF2"/></linearGradient></defs><g fill="none" fill-rule="evenodd"><mask id="c" fill="#fff"><use xlink:href="#a"/></mask><path fill="url(#b)" fill-rule="nonzero" d="M-.955 101.964h101.883V-2.652H-.955z" mask="url(#c)"/><mask id="e" fill="#fff"><use xlink:href="#d"/></mask><path fill="#F59080" d="M59.495-1.573c2.445 2.616 5.521 7.465 3.422 14.004-.58 1.807-.362 3.78.664 5.377 2.553 3.976 6.353 12.028 1.948 20.005a6.187 6.187 0 00-.782 3.38c.247 3.872-.159 12.678-8.773 13.667a6.303 6.303 0 00-4.983 3.609c-2.284 4.882-8.137 12.507-21.666 8.501a6.374 6.374 0 00-3.814.06C21.498 68.36 12 70.427 7.35 62.34a6.238 6.238 0 00-3.623-2.87c-3.24-.964-8.5-3.992-8.634-13.495a6.247 6.247 0 00-.046-.685C-5.44 41.391-8.799 1.816 54.333-3.567a6.334 6.334 0 015.162 1.994" mask="url(#e)"/><path fill="#FCBB7F" d="M69.397 65.973s-7.083 3.264-5.339 12a3.43 3.43 0 01-.27 2.151c-.594 1.248-2 3.226-2.617 4.704-1.025 2.457 2.985.872 3.058 2.035.073 1.163-1.165 2.326-.583 2.762.583.436 1.675-.291 2.039 0 .364.29-2.257 1.162-1.165 1.889 1.092.727 1.31.218 1.674 1.163.364.944-.072 4.505 4.295 3.56 4.368-.944 5.169-1.162 7.57 3.561 0 0 10.556 2.399 11.357-.654.8-3.052-5.824-5.523-4.805-12.28 0 0 6.445-14.099-.616-19.55-7.652-5.906-14.598-1.34-14.598-1.34" mask="url(#e)"/><g mask="url(#e)"><g transform="translate(-.1 .083)"><mask id="g" fill="#fff"><use xlink:href="#f"/></mask><path fill="#F59080" fill-opacity=".31" d="M-1.415 54.51l.006.2c2.318-1.38 5.36.38 7.703 1.716 2.343 1.336 4.224 3.336 6.35 4.995 2.126 1.66 4.714 3.03 7.398 2.75 3.548-.372 6.75-2.054 10.304-2.378 2.52-.229 5 2.072 7.523 1.862 3.074-.257 5.551-2.59 7.448-5.018 1.896-2.428 3.166-6.613 5.756-8.286 3.029-1.957 6.92-2.376 9.348-5.04 2.243-2.462 2.267-8.147 3.504-11.63 1.164-3.275-.01-7.147-1.79-10.134-1.414-2.373-1.71-4.112-2.733-6.677-2.051-5.149 2.52-11.498-.22-16.316-1.136-1.996-6.634-3.242-8.887-3.703-2.253-.46-4.59-.226-6.859.153-9.385 1.571-18.286 5.727-25.64 11.74C9.774 15.304 4.47 23.449 1.44 33.32a65.328 65.328 0 00-2.855 21.19" mask="url(#g)"/></g></g><mask id="i" fill="#fff"><use xlink:href="#h"/></mask><path fill="#FFF" d="M47.258 26.933h-6.645a1.72 1.72 0 01-1.722-1.72V18.58c0-.95-.771-1.72-1.723-1.72h-7.846c-.951 0-1.722.77-1.722 1.72v6.634c0 .95-.77 1.72-1.722 1.72h-6.646a1.72 1.72 0 00-1.722 1.719v7.833c0 .95.77 1.72 1.722 1.72l6.648-.002c.951 0 1.722.77 1.722 1.72l.001 6.635c0 .95.771 1.72 1.722 1.72h7.843a1.72 1.72 0 001.723-1.72V39.92c0-.95.77-1.72 1.722-1.72h6.646a1.72 1.72 0 001.722-1.72v-7.83a1.72 1.72 0 00-1.723-1.718" mask="url(#i)"/><path fill="#F59080" d="M74.898 40.822a1.99 1.99 0 00-.875-.036c-.607.118-1.11.56-1.442 1.082-.495.78-1.48 2.373-1.062 3.282.235.51.677.89 1.106 1.252.683.577 1.49 1.192 2.373 1.054.874-.137 1.452-.952 1.927-1.697.502-.789 1.027-1.7.79-2.605-.187-.717-.81-1.228-1.425-1.644-.426-.289-.9-.564-1.392-.688" mask="url(#i)"/><g mask="url(#i)"><g transform="translate(72.504 41.964)"><mask id="k" fill="#fff"><use xlink:href="#j"/></mask><path fill="#F59080" fill-opacity=".31" d="M2.276.12a1.225 1.225 0 00-.538-.022C1.364.171 1.054.443.85.764c-.305.48-.911 1.46-.654 2.02.145.314.417.548.68.771.421.355.918.734 1.462.649.538-.085.893-.586 1.186-1.045.31-.485.632-1.046.487-1.603-.116-.442-.5-.756-.878-1.012C2.871.366 2.58.197 2.276.12" mask="url(#k)"/></g></g><mask id="m" fill="#fff"><use xlink:href="#l"/></mask><path fill="#F59080" d="M82.905 49.258a1.605 1.605 0 00-.572.041c-1.872.487-1.62 3.307.37 3.296a1.751 1.751 0 001.524-.942 1.705 1.705 0 00-.177-1.777 1.692 1.692 0 00-1.145-.618" mask="url(#m)"/><g mask="url(#m)"><g transform="translate(81.921 50.169)"><mask id="o" fill="#fff"><use xlink:href="#n"/></mask><path fill="#F59080" fill-opacity=".31" d="M.88.03a.707.707 0 00-.25.018c-.822.214-.71 1.45.161 1.445a.767.767 0 00.668-.413.748.748 0 00-.077-.779.742.742 0 00-.502-.27" mask="url(#o)"/></g></g><mask id="q" fill="#fff"><use xlink:href="#p"/></mask><path fill="#F59080" d="M86.745 58.636a1.066 1.066 0 00-.38.027c-1.248.325-1.08 2.203.245 2.195a1.164 1.164 0 001.015-.627 1.137 1.137 0 00-.118-1.184 1.127 1.127 0 00-.762-.411" mask="url(#q)"/><path fill="#5C429A" d="M68.323 64.223s-6.051 2.331-6.794 7.206c-.743 4.876.702 4.597 2.335 4.982 2.006.472 6.794-4.184 8.704-3.336 1.911.847 2.398 5.944 5.582 5.944 3.185 0 2.633 2.114 3.164 5.294.53 3.18.727 5.223 2.419 4.83 1.691-.395 3.593-2.982 3.593-4.784 0-1.802 4.034-12.082-1.274-16.639-5.308-4.557-11.147-8.16-17.729-3.497" mask="url(#q)"/></g></svg>