<svg xmlns="http://www.w3.org/2000/svg" xmlns:xlink="http://www.w3.org/1999/xlink" width="100" height="100"><defs><linearGradient id="c" x1="15.85%" x2="84.15%" y1="-9.15%" y2="109.15%"><stop offset="0%" stop-color="#9EB5D7"/><stop offset="1%" stop-color="#9FB6D7"/><stop offset="29%" stop-color="#C2CEE3"/><stop offset="56%" stop-color="#DBE0EB"/><stop offset="80%" stop-color="#EBEAF0"/><stop offset="100%" stop-color="#F0EEF2"/></linearGradient><circle id="a" cx="50" cy="50" r="50"/></defs><g fill="none" fill-rule="evenodd"><mask id="b" fill="#fff"><use xlink:href="#a"/></mask><use fill="#D8D8D8" xlink:href="#a"/><g fill-rule="nonzero" mask="url(#b)"><path fill="url(#c)" d="M.229.223h106.193v106.193H.229z" transform="translate(-1.807 -5.422)"/><path fill="#F59080" d="M43.777 55.867a11.446 11.446 0 01-1.657-.126c-13.036-2.024-13.036-21.488-12.427-29.765a14.018 14.018 0 015.38-10.18 12.82 12.82 0 017.56-2.645l.072 2.873a9.928 9.928 0 00-5.892 2.06 11.169 11.169 0 00-4.259 8.097c-.247 3.44-.464 10.066.904 15.861 1.536 6.506 4.596 10.157 9.102 10.844 6.874 1.06 12.56-6.386 15.332-13.085 3.307-7.994 4.012-18.536-1.205-22.343l1.699-2.32c3.054 2.235 4.777 6.145 4.981 11.308a35.343 35.343 0 01-2.825 14.458C55.964 51.988 49.17 55.86 43.777 55.867z"/><path fill="#A183BC" stroke="#A183BC" stroke-width="4" d="M53.199 88.175c-.422 0-.85 0-1.271-.042-9.741-.717-17.675-9.38-17.687-19.314a30.066 30.066 0 014.048-14.5 1.434 1.434 0 012.012-.518c.651.4.871 1.242.5 1.91a27.259 27.259 0 00-3.687 13.108c0 8.32 6.886 15.85 15.025 16.446 6.97.506 13.951-4.06 18.674-12.223 5.476-9.482 6.157-20.729 1.657-27.361l2.373-1.615c4.314 6.35 5.506 18.211-1.542 30.416-5.012 8.65-12.464 13.693-20.102 13.693z" style="mix-blend-mode:multiply"/><path fill="#F59080" d="M71.837 46.542a4.217 4.217 0 01-3.97-2.946c-.747-2.078 0-4.15 1.808-5.024 2.476-1.205 4.03-.458 4.735.097a4.572 4.572 0 011.391 4.536 4.018 4.018 0 01-2.928 3.21 4.283 4.283 0 01-1.036.127zm.314-6.32c-.52.03-1.028.172-1.488.417-.946.463-.844 1.59-.603 2.18a1.904 1.904 0 002.277 1.362 1.807 1.807 0 001.205-1.464 2.32 2.32 0 00-.566-2.241 1.313 1.313 0 00-.825-.253z"/><path fill="#F59080" stroke="#F59080" stroke-width="4.66" d="M53.175 51.446c-.157-1.603-1.904-1.554-3.06-1.15a43.801 43.801 0 00-4.09 1.951c-2.055.964-3.706.265-5.82-.09a.735.735 0 00-.163 0 .85.85 0 00-.078-.145c-1.084-1.392-2.524-2.41-3.362-3.97a22.29 22.29 0 00-2.367-4.006 2.108 2.108 0 00-1.807.542.91.91 0 00-1.139 1.049c.79 3.765 3.946 5.975 6.452 8.602a19.44 19.44 0 01-1.56 3.898c-.386.734-.952 1.475-1.067 2.325a1.807 1.807 0 002.266 1.946c2.44-.573 2.759-4.597 3.518-6.47a.753.753 0 00.06-.29c2.229.675 5.175.711 7.144-.566a.723.723 0 00.127-.102 25.9 25.9 0 001.367-.422c1.362-.434 3.76-1.259 3.579-3.102z" style="mix-blend-mode:multiply"/><path fill="#A183BB" stroke="#A183BB" stroke-width="3.5" d="M44.729 13.199c-.97-.687-2.337-.603-3.47-.603a.82.82 0 00-.506.157.801.801 0 00-.71.82c0 1.204.071 2.626 1.306 3.234a3.169 3.169 0 003.356-.524c.91-.825 1.12-2.301.024-3.084zm15.084 2.421c-.554-1.512-2.789-2.843-4.337-2.078a2.307 2.307 0 00-1.205 2.482 4.657 4.657 0 001.645 2.343c.049.04.101.077.156.109.027.05.06.096.097.138.1.116.22.212.355.284a.861.861 0 00.633.084l.12.036a1.807 1.807 0 001.946-1.096c.41-.711.897-1.47.59-2.302z"/></g></g></svg>