<svg xmlns="http://www.w3.org/2000/svg" xmlns:xlink="http://www.w3.org/1999/xlink" width="100" height="100"><defs><linearGradient id="c" x1="17.028%" x2="82.978%" y1="-8.603%" y2="108.603%"><stop offset="0%" stop-color="#9EB5D7"/><stop offset="12%" stop-color="#B1C2DD"/><stop offset="34%" stop-color="#CCD5E6"/><stop offset="56%" stop-color="#E0E3ED"/><stop offset="78%" stop-color="#ECEBF1"/><stop offset="100%" stop-color="#F0EEF2"/></linearGradient><circle id="a" cx="50" cy="50" r="50"/></defs><g fill="none" fill-rule="evenodd"><mask id="b" fill="#fff"><use xlink:href="#a"/></mask><use fill="#D8D8D8" xlink:href="#a"/><g fill-rule="nonzero" mask="url(#b)"><path fill="url(#c)" d="M.1.463h110.175v113.043H.1z" transform="translate(-8.75 -11.875)"/><path fill="#FCBB7F" d="M23.475 69.194c-2.438 7.106-2.081 11.343.406 23.931l-5.362-.95c-2.906-.519-5.806-1.056-8.713-1.556-.5-.082-.431-12.263-.443-12.813-.094-4.506-.563-9-.194-13.512.256-3.125.8-6.188 2.337-8.981A11.731 11.731 0 0123.425 49.4c2.844.4 5.625 1.094 8.475 1.675 2.85.581 5.506 1.019 8.344.225a8.669 8.669 0 002.631-1.25 13.381 13.381 0 004.944-6.575 6.456 6.456 0 00-.325-5.256 44.256 44.256 0 00-2.594-4.344c-1.844-2.781-3.637-5.575-4.806-8.75-3.331-10.238-1.619-25.869-1.406-29.938h14.68c.182 2.732-3.75 16.325 1.582 25.357.088-.157.169-.275.225-.4a14.65 14.65 0 0114.938-8.969c7.237.575 12.5 4.375 16.35 10.275a23.588 23.588 0 013.63 15.094c-.624 7.819-3.543 14.794-7.805 21.25-4.75 7.194-10.775 13.05-18.494 17.025a31.187 31.187 0 01-15.138 3.631 26.919 26.919 0 01-13.7-4.031c-2.993-1.831-5.868-3.869-8.793-5.813a3.956 3.956 0 01-.338-.225 1.569 1.569 0 00-2.35.813z"/><path fill="#F59080" d="M42.956 55.925c4.825-2.412 7.894-7.225 11.356-11.362.97-1.15 2.7-2.763 4.6-3.244 2.325-.594 5.22.1 7.607.343L80.58 43.1c2.456.256 5.625 1.25 5.625 3.712a5.063 5.063 0 01-.725 2.207c-1.944 3.806-3.931 7.669-6.875 10.737-2.093 2.175-7.881 7.038-10.462 8.606-6.569 4.013-9.669 6.063-17.307 7.032-7.637.968-13.175-1.075-19.18-5.888-3.126-2.5-9.163-7.575-9.263-11.612.481-5.319 14.244.562 20.625-1.938"/><path fill="#F59080" d="M45.619 57.087c3.831-2.187 6.337-6.043 8.975-9.58a9.531 9.531 0 012.569-2.607c1.68-1.006 3.75-.95 5.73-.856l11.544.531c2.026.094 4.657.75 4.757 2.775a4.075 4.075 0 01-.494 1.831c-1.413 3.194-2.856 6.444-5.138 9.088a29.325 29.325 0 01-5.624 4.781c-5.182 3.575-10.888 6.581-17.076 7.725-6.187 1.144-10.056 1.25-15.18-2.413-2.688-1.918-7.832-5.762-8.126-9.056.181-3.45 5.969 2.363 18-2.231"/><path fill="#F59080" d="M64.638 25.794A1.25 1.25 0 0063.5 27.38a1.25 1.25 0 001.825.781 1.388 1.388 0 00.444-2.087 1.25 1.25 0 00-.944-.387.975.975 0 00-.95.962.794.794 0 00.788.788.812.812 0 00.793-.788c0 .345-.28.625-.625.625h-.106c.075 0 .05 0-.088-.044h.05l-.087-.062c-.08-.121-.098-.146-.056-.075a.456.456 0 01-.069-.238.206.206 0 010 .088v-.069l.044-.106c0 .031-.032.056-.044.081.075-.094.087-.113.031-.05-.056.062-.044.044.056-.038l-.08.05c.118-.043.143-.062.087-.043-.057.018-.032 0 .1 0h.075c.137 0 .15.068.081.031.112.094.137.112.081.056.081.119.106.144.075.094-.031-.05 0 0 .044.112-.063-.187 0 .163 0 .038s-.044.156 0 .031.081-.15 0 .056c.037-.062 0-.037-.069.082.056-.057 0-.038-.087.056.068-.038 0 0-.1.037h-.107a.794.794 0 000-1.58l-.025.012zm5.25 2.65a1.469 1.469 0 00-1.682.219 1.312 1.312 0 00-.3 1.687c.506.52 1.33.553 1.875.075.483-.453.587-1.18.25-1.75a.794.794 0 00-1.075-.281.8.8 0 00-.287 1.081c.087.144-.038-.163 0 0v-.106c0 .069 0 .069 0 0s0-.069 0 0l.044-.094c-.082.138.125-.1 0 0l.08-.062c-.062.03-.062.037 0 0 .063-.038.063-.032 0 0h.107c-.15 0 .144.062 0 0 .106.043.1.056 0 0l.363.475c-.044-.157 0 .175 0 0v.1c0-.063 0 0-.044.087a.581.581 0 010-.062l-.05.068.1-.1-.088.069.081-.044-.106.044h.094-.125c.069 0 .062 0 0 0-.063 0-.081 0 0 0-.113-.056-.138-.062-.063 0a.79.79 0 00.8-1.362l.025-.044zm-6.607 3.662a.981.981 0 00-.45-.793 1.069 1.069 0 00-.744-.107.994.994 0 00-.737 1.194 1.25 1.25 0 001.15.919 1.45 1.45 0 001.075-.438 1.25 1.25 0 00-.506-2.031 1.25 1.25 0 00-1.613 1.1.794.794 0 00.788.788.8.8 0 00.787-.788c0 .138-.031.181 0 .119.032-.063 0 0-.043.112-.044.113-.113.138-.07.094.044-.044 0 0-.093.069.106-.069-.188.062-.056 0 .131-.063-.175 0-.082 0 .094 0-.137-.038-.056 0 .082.037-.037 0-.068-.038.118.069-.144-.137-.05-.043a.369.369 0 01-.107-.163c0-.075-.031-.075 0 0v-.188l.038-.1a.7.7 0 00.05-.062c-.038.044-.038.031 0 0-.132.094.15-.038 0 0s-.063 0 0 0a.263.263 0 01.168 0c-.112 0 .082.038.113.069a.625.625 0 01-.306.906h-.138c-.394-.25-.537-.3-.412-.156l-.207-.35v-.144c.01.43.357.778.788.787.394 0 .844-.35.794-.787l-.013.031zm4.575 1.207a1.25 1.25 0 00-2.031-.444 1.344 1.344 0 00.681 2.144c.838.256 1.875-.47 1.588-1.407a1.094 1.094 0 00-1.019-.731.963.963 0 00-.994.731.813.813 0 00.55.975.794.794 0 00.969-.55c.038-.193-.056-.075-.281.338l-.132.062a.375.375 0 01-.218 0h-.038c-.112-.037-.118 0-.2-.112a.581.581 0 01-.093-.675l.068-.088c-.054.059-.035.046.056-.037l.1-.038c-.068 0-.062 0 0 0 .182.05-.168-.056 0 0a.25.25 0 01.15.05c-.056-.037-.056-.037 0 0 .057.038.05.038 0 0l-.037-.037c.069.094.081.1.038.031l.043.094c0-.069 0-.069 0 0a.294.294 0 010 .162c0-.062 0-.062 0 0a.269.269 0 01-.087.144.337.337 0 01-.15.1c.137-.037-.194 0-.038 0h-.131c.063 0 .056 0 0 0a.538.538 0 01-.281-.312.794.794 0 101.525-.42l-.038.02zm5.782 1.575a1.18 1.18 0 00-.507 1.25 1.169 1.169 0 102.119-.907.85.85 0 00-.469-.362.837.837 0 00-.625.081.8.8 0 00-.281 1.081c.063.082 0-.087 0-.1.038.125 0-.162 0-.087v-.107c0 .088.1-.175 0-.075-.1.1.056-.062.063-.075-.076.094.137-.08.062-.043-.075.037.181-.063.094-.038h.056a.331.331 0 01.206 0s.182.094.1.038c-.081-.057.163.137.088.062.083.117.108.148.075.094v.05c0 .05 0 .05 0 0v.206c0-.119-.088.156-.038.081.05-.075 0 0-.037.044a.381.381 0 01-.15.131.869.869 0 00.362-.468.794.794 0 00-1.156-.906l.038.05zm1.318 6.362a1.25 1.25 0 00.538 2.05 1.2 1.2 0 001.468-1.481 1.25 1.25 0 00-2.012-.625 1.337 1.337 0 00-.412.937c-.007.44.219.85.593 1.081a.975.975 0 00.725.088.937.937 0 00.557-.419.894.894 0 00.093-.712 1.063 1.063 0 00-.425-.55l.257.25c-.032-.05 0-.038 0 .05a.3.3 0 01.043.162v.05c0-.069-.05.25 0 .138l-.068.156c.037-.056 0-.044 0 .031a.675.675 0 01-.7.231.625.625 0 01-.35-.237c-.057-.075-.07-.088-.044-.05.025.038 0 0-.056-.144.03.119 0-.143 0-.143 0 .143.043-.207 0-.125a.769.769 0 01.325-.413.906.906 0 01.543-.063.481.481 0 01.225.113c.069.056.082.069.05.038-.031-.032 0 0 .038.05a.456.456 0 01.112.218v.138a.456.456 0 01-.112.331c-.119.156-.144.2-.069.138a.912.912 0 000-1.307.975.975 0 00-1.325 0l.006.019zm-10.693.275a1.25 1.25 0 00-1.32.537.8.8 0 00.282 1.082c.455.3 1.045.3 1.5 0 .548-.375.728-1.1.419-1.688a1.325 1.325 0 00-1.469-.706 1.369 1.369 0 00-1.044 1.387c.007.352.239.66.575.763.424.122.88.056 1.25-.181a.79.79 0 00-.8-1.363l-.106.069c.094-.037.094-.044 0 0 .106 0 .113 0 0 0 .1 0 .113 0 0 0l.575.756v.038c0-.131 0 0-.044.056s.063-.056 0 0c-.062.056-.044.038 0 0l-.081.044a.406.406 0 01-.194 0c.125 0-.037-.031-.081-.05-.044-.019-.05-.038 0 0 .05.037 0 0 0 0s0 .137-.044-.081c.038.1 0 0 0-.057v-.05c0-.05.057-.125 0-.075-.056.05 0 .032 0 0 0-.031.138-.118.088-.087-.05.031.162-.056 0 0-.163.056 0 0 .056 0h.069L64.18 43a.406.406 0 01-.462.188.819.819 0 00.975-.557.806.806 0 00-.557-.968l.125-.138z" opacity=".5" style="mix-blend-mode:multiply"/><path fill="#F59080" d="M60.031 25.938l-.143-.144a.789.789 0 00-1.113 1.119l.138.143a.794.794 0 101.118-1.118z" opacity=".6" style="mix-blend-mode:multiply"/></g></g></svg>